<svg width="41" height="39" viewBox="0 0 41 39" fill="none" xmlns="http://www.w3.org/2000/svg">

<!--progs-->
<g id="photoshop">
    <path d="M2.45359 1.94578H38.5464V37.0542H2.45359V1.94578ZM0.8125 38.6953H40.1875V0.304688H0.8125V38.6953ZM27.3583 16.0547C26.0617 16.0547 25.6187 16.7114 25.6187 17.2528C25.6187 17.8434 25.9141 18.2541 27.6536 19.1555C30.2298 20.4028 31.0286 21.5995 31.0286 23.3559C31.0286 25.9814 29.0275 27.3919 26.3205 27.3919C25.1587 27.4349 24.004 27.1936 22.9567 26.6887C22.8414 26.6395 22.8259 26.558 22.8259 26.4258V24.0112C22.8259 23.8467 22.9075 23.7975 23.0228 23.8805C24.0063 24.5129 25.1512 24.8488 26.3205 24.848C27.617 24.848 28.1584 24.3066 28.1584 23.5683C28.1584 22.9777 27.7816 22.4531 26.1236 21.5995C23.7934 20.4844 22.8259 19.3495 22.8259 17.4652C22.8259 15.3488 24.4825 13.5938 27.3541 13.5938C28.3536 13.5508 29.3517 13.7071 30.2903 14.0536C30.3444 14.0887 30.3881 14.1375 30.417 14.1951C30.4459 14.2527 30.459 14.3169 30.4548 14.3813V16.6313C30.4548 16.762 30.3733 16.845 30.2087 16.7958C29.3413 16.2964 28.3548 16.0413 27.3541 16.0575L27.3583 16.0547ZM13.248 18.0066C13.6248 18.0389 13.9202 18.0389 14.5769 18.0389C16.4964 18.0389 18.3006 17.3667 18.3006 14.7581C18.3006 12.6741 17.0041 11.625 14.823 11.625C14.1663 11.625 13.5433 11.6573 13.248 11.6742V18.0066ZM10.3272 9.28781C10.3272 9.1725 10.5564 9.09094 10.6886 9.09094C12.0988 9.03331 13.51 9.00612 14.9214 9.00937C19.4664 9.00937 21.2383 11.5027 21.2383 14.6864C21.2383 18.8531 18.2191 20.6419 14.5122 20.6419C13.8892 20.6419 13.6755 20.6095 13.2325 20.6095V26.9095C13.2325 27.0403 13.1833 27.1064 13.0356 27.1064H10.5255C10.3947 27.1064 10.3286 27.0572 10.3286 26.9095V9.29484L10.3272 9.28781Z" fill="#31C5F0"/>
</g>
    <g id="ai">
        <path d="M2.45641 1.94578H38.5492V37.0542H2.45641V1.94578ZM0.8125 38.6953H40.1875V0.304688H0.8125V38.6953ZM26.6031 13.9875C26.6031 13.8567 26.6523 13.7906 26.8 13.7906H29.3763C29.507 13.7906 29.5731 13.8398 29.5731 13.9875V26.932C29.5731 27.0628 29.5408 27.1289 29.3763 27.1289H26.8352C26.6706 27.1289 26.6214 27.0473 26.6214 26.9152V13.9875H26.6045H26.6031ZM26.4231 10.2638C26.4231 9.81993 26.5994 9.39428 26.9133 9.08045C27.2271 8.76662 27.6527 8.59031 28.0966 8.59031C28.5404 8.59031 28.966 8.76662 29.2799 9.08045C29.5937 9.39428 29.77 9.81993 29.77 10.2638C29.7862 10.4905 29.753 10.718 29.6725 10.9306C29.5921 11.1432 29.4663 11.3357 29.3041 11.4949C29.1418 11.6541 28.9469 11.7761 28.7328 11.8525C28.5187 11.9288 28.2906 11.9577 28.0642 11.9372C27.8424 11.9511 27.6202 11.9171 27.4128 11.8374C27.2053 11.7577 27.0175 11.6343 26.862 11.4755C26.7066 11.3167 26.5871 11.1263 26.5119 10.9172C26.4366 10.7081 26.4073 10.4852 26.4259 10.2638H26.4231ZM19.0403 19.3861C18.5805 17.558 17.4934 13.5952 17.0884 11.6756H17.0561C16.7116 13.5952 15.8425 16.8436 15.1534 19.3861H19.0403ZM14.4798 22.0439L13.1833 26.9658C13.1509 27.0966 13.1017 27.1303 12.9372 27.1303H10.5283C10.3638 27.1303 10.3314 27.0811 10.3637 26.8842L15.0227 10.5717C15.1361 10.127 15.1914 9.66942 15.1872 9.21047C15.1872 9.09516 15.2364 9.04594 15.318 9.04594H18.7633C18.8786 9.04594 18.9278 9.07828 18.9602 9.21047L24.1773 26.9123C24.2097 27.0431 24.1773 27.1261 24.0466 27.1261H21.3227C21.1919 27.1261 21.1089 27.0938 21.0766 26.9855L19.7308 22.0467H14.4813L14.4798 22.0439Z" fill="#FF7F18"/>
    </g>

<!--    social networks-->
    <g id="facebook">
        <path d="M24.1492 11.9134C24.1492 5.71258 18.7406 0.688965 12.0748 0.688965C5.40451 0.688965 0.000488281 5.71258 0.000488281 11.9134C0.000488281 17.5143 4.41441 22.1584 10.1882 22.9996V15.1586H7.12208V11.9141H10.1882V9.43979C10.1882 6.62737 11.988 5.0742 14.747 5.0742C16.0684 5.0742 17.4517 5.29307 17.4517 5.29307V8.05498H15.9265C14.4293 8.05498 13.9614 8.92136 13.9614 9.80879V11.9134H17.3098L16.7717 15.1579H13.9614V22.9989C19.7307 22.1577 24.1492 17.5143 24.1492 11.9134Z" fill="#F8EEEF"/>
    </g>
    <g id="insta">
        <path d="M11.997 8.12425C9.79351 8.12425 7.99529 9.79588 7.99529 11.8443C7.99529 13.8926 9.79351 15.5643 11.997 15.5643C14.2005 15.5643 15.9987 13.8926 15.9987 11.8443C15.9987 9.79588 14.2005 8.12425 11.997 8.12425ZM23.9991 11.8443C23.9991 10.3038 24.0141 8.77727 23.9211 7.23959C23.828 5.45354 23.3897 3.86841 21.9847 2.56236C20.5768 1.25352 18.8746 0.848865 16.9533 0.762353C15.2962 0.675841 13.6541 0.689795 12 0.689795C10.3429 0.689795 8.70077 0.675841 7.04665 0.762353C5.12536 0.848865 3.4202 1.25631 2.01525 2.56236C0.607303 3.8712 0.172008 5.45354 0.0789456 7.23959C-0.0141172 8.78006 0.000892936 10.3066 0.000892936 11.8443C0.000892936 13.3819 -0.0141172 14.9113 0.0789456 16.4489C0.172008 18.235 0.610305 19.8201 2.01525 21.1262C3.4232 22.435 5.12536 22.8397 7.04665 22.9262C8.70377 23.0127 10.3459 22.9987 12 22.9987C13.6571 22.9987 15.2992 23.0127 16.9533 22.9262C18.8746 22.8397 20.5798 22.4322 21.9847 21.1262C23.3927 19.8173 23.828 18.235 23.9211 16.4489C24.0171 14.9113 23.9991 13.3847 23.9991 11.8443ZM11.997 17.568C8.58969 17.568 5.83984 15.0117 5.83984 11.8443C5.83984 8.67681 8.58969 6.12052 11.997 6.12052C15.4043 6.12052 18.1542 8.67681 18.1542 11.8443C18.1542 15.0117 15.4043 17.568 11.997 17.568ZM18.4063 7.22285C17.6108 7.22285 16.9684 6.62563 16.9684 5.8861C16.9684 5.14656 17.6108 4.54935 18.4063 4.54935C19.2019 4.54935 19.8443 5.14656 19.8443 5.8861C19.8445 6.0617 19.8075 6.23563 19.7353 6.39791C19.6631 6.56019 19.5572 6.70764 19.4237 6.83181C19.2901 6.95599 19.1315 7.05444 18.9569 7.12154C18.7823 7.18864 18.5952 7.22307 18.4063 7.22285Z" fill="#F8EEEF"/>
    </g>
    <g id="snapchat">
        <path d="M12.0005 0.688965C5.37146 0.688965 0.000488281 5.68186 0.000488281 11.8443C0.000488281 18.0067 5.37146 22.9996 12.0005 22.9996C18.6295 22.9996 24.0005 18.0067 24.0005 11.8443C24.0005 5.68186 18.6295 0.688965 12.0005 0.688965ZM20.2021 15.933C20.0327 16.2974 19.3263 16.5628 18.0344 16.7517C17.9666 16.8372 17.9134 17.1925 17.8263 17.4669C17.7731 17.6333 17.6473 17.7323 17.4344 17.7323H17.4247C17.1247 17.7323 16.8053 17.6018 16.1763 17.6018C15.3247 17.6018 15.0295 17.7818 14.3666 18.2181C13.665 18.6814 12.9924 19.0772 11.986 19.0367C10.9698 19.1087 10.1182 18.5329 9.6392 18.2181C8.97146 17.7818 8.68113 17.6018 7.82952 17.6018C7.22468 17.6018 6.84242 17.7413 6.58113 17.7413C6.31984 17.7413 6.21823 17.5928 6.17952 17.4714C6.09242 17.197 6.0392 16.8372 5.97146 16.7517C5.30371 16.6572 3.80371 16.4143 3.76984 15.7891C3.76017 15.6272 3.88113 15.4832 4.05533 15.4562C6.29565 15.1144 7.3021 12.9778 7.34565 12.8878C7.34565 12.8833 7.35049 12.8788 7.35533 12.8743C7.47629 12.6494 7.50049 12.4605 7.43275 12.3121C7.26823 11.9567 6.56662 11.8308 6.27146 11.7183C5.50694 11.4394 5.40049 11.1156 5.44887 10.8952C5.52629 10.5128 6.14565 10.2744 6.50855 10.4319C6.79404 10.5578 7.05049 10.6208 7.26823 10.6208C7.42791 10.6208 7.53436 10.5848 7.58758 10.5578C7.51984 9.48276 7.36017 7.9489 7.77146 7.08977C8.86017 4.82722 11.1634 4.6473 11.8408 4.6473C11.8698 4.6473 12.136 4.6428 12.165 4.6428C13.844 4.6428 15.4553 5.44346 16.244 7.08527C16.6553 7.94441 16.4956 9.47376 16.4279 10.5533C16.4811 10.5803 16.5682 10.6118 16.7037 10.6163C16.9118 10.6073 17.1489 10.5443 17.415 10.4274C17.6086 10.3419 17.8795 10.3554 18.0731 10.4274C18.3779 10.5308 18.5715 10.7332 18.5763 10.9626C18.5811 11.255 18.3005 11.5069 17.744 11.7093C17.6763 11.7363 17.594 11.7588 17.5069 11.7858C17.1924 11.8802 16.7134 12.0197 16.5876 12.3031C16.5198 12.4515 16.5489 12.6404 16.665 12.8653C16.6698 12.8698 16.6698 12.8743 16.6747 12.8788C16.7182 12.9688 17.7247 15.1054 19.965 15.4472C20.1586 15.4922 20.3086 15.6946 20.2021 15.933Z" fill="#F8EEEF"/>
    </g>
    <g id="twitter">
        <path d="M12 0.688965C5.37321 0.688965 0 5.68395 0 11.8443C0 18.0046 5.37321 22.9996 12 22.9996C18.6268 22.9996 24 18.0046 24 11.8443C24 5.68395 18.6268 0.688965 12 0.688965ZM17.767 9.09777C17.775 9.2148 17.775 9.33681 17.775 9.45633C17.775 13.1117 14.7804 17.3223 9.30804 17.3223C7.62054 17.3223 6.05625 16.8666 4.73839 16.0823C4.97946 16.1072 5.20982 16.1171 5.45625 16.1171C6.84911 16.1171 8.12946 15.6789 9.15 14.9369C7.84286 14.912 6.74464 14.1152 6.36964 13.0196C6.82768 13.0818 7.24018 13.0818 7.71161 12.9698C7.03855 12.8426 6.43359 12.5028 5.99951 12.0081C5.56542 11.5133 5.32898 10.8941 5.33036 10.2556V10.2208C5.72411 10.4274 6.1875 10.5544 6.67232 10.5719C6.26476 10.3194 5.93051 9.97727 5.69923 9.57593C5.46794 9.17458 5.34676 8.72639 5.34643 8.27108C5.34643 7.75565 5.49107 7.28503 5.75089 6.87667C6.49795 7.73158 7.43017 8.4308 8.48696 8.92886C9.54375 9.42692 10.7014 9.71269 11.8848 9.76758C11.4643 7.88762 12.975 6.36621 14.7911 6.36621C15.6482 6.36621 16.4196 6.69988 16.9634 7.23772C17.6357 7.12069 18.2786 6.88663 18.8518 6.57289C18.6295 7.21282 18.1634 7.75316 17.5446 8.09429C18.1446 8.03453 18.7232 7.88015 19.2589 7.66352C18.8545 8.2163 18.3482 8.70683 17.767 9.09777Z" fill="#F8EEEF"/>
    </g>
    <g id="youtube">
        <path d="M33.6763 4.17411C33.4814 3.49924 33.0992 2.8838 32.568 2.38939C32.0368 1.89497 31.3753 1.53892 30.6496 1.35686C27.9782 0.688965 17.2699 0.688965 17.2699 0.688965C17.2699 0.688965 6.56166 0.688965 3.89033 1.35331C3.16429 1.53477 2.5024 1.89063 1.97111 2.38514C1.43983 2.87965 1.05787 3.4954 0.863575 4.17055C0.148926 6.6574 0.148926 11.8443 0.148926 11.8443C0.148926 11.8443 0.148926 17.0311 0.863575 19.5144C1.25721 20.8857 2.41899 21.9657 3.89033 22.3317C6.56166 22.9996 17.2699 22.9996 17.2699 22.9996C17.2699 22.9996 27.9782 22.9996 30.6496 22.3317C32.1247 21.9657 33.2827 20.8857 33.6763 19.5144C34.391 17.0311 34.391 11.8443 34.391 11.8443C34.391 11.8443 34.391 6.6574 33.6763 4.17411ZM13.8687 16.6048V7.08372L22.7349 11.8087L13.8687 16.6048Z" fill="#F8EEEF"/>
    </g>

<!--    contacts-->
    <g id="telephone">
        <path d="M13.633 16.0729L16.1504 13.8675C16.233 13.7914 16.3323 13.7339 16.441 13.6992C16.5498 13.6645 16.6653 13.6535 16.7791 13.667L17.1981 13.8675L23.0633 16.473C23.4824 16.6735 23.4824 16.874 23.4824 17.275C23.4692 17.9527 23.3144 18.621 23.0272 19.2406C22.74 19.8602 22.3261 20.4186 21.81 20.8829C21.2273 21.4196 20.5371 21.8379 19.7811 22.1129C19.0251 22.3879 18.2188 22.5138 17.4106 22.4831C15.3663 22.4715 13.3548 21.9902 11.5454 21.0797C9.4123 19.9977 7.43759 18.6514 5.67237 17.0754C4.50633 15.6861 3.45574 14.2117 2.53024 12.6655C1.69887 11.2568 0.998047 9.78121 0.435804 8.25554C0.0897845 7.01498 -0.0516138 5.73033 0.0167205 4.44802C0.154679 3.32092 0.669102 2.26651 1.48351 1.44155C2.60351 0.552618 4.0078 0.0573397 5.46283 0.0380859C5.62494 0.0409482 5.78433 0.0784389 5.92935 0.147817C6.07436 0.217195 6.20134 0.316706 6.301 0.439075L9.44314 6.05104C9.46511 6.20308 9.53874 6.34399 9.65268 6.45203C9.6668 6.56089 9.65532 6.6714 9.61906 6.77546C9.58281 6.87953 9.5227 6.97453 9.44314 7.05351L6.72008 9.45851C6.61541 9.60648 6.55946 9.78106 6.55946 9.95974C6.55946 10.1384 6.61541 10.313 6.72008 10.461C7.4383 11.6112 8.28075 12.6861 9.2336 13.668C10.255 14.6436 11.3781 15.5166 12.5853 16.2734C13.0024 16.4739 13.4234 16.4739 13.633 16.0729Z" fill="#F8EEEF"/>
    </g>
    <g id="mails">
        <path fill-rule="evenodd" clip-rule="evenodd" d="M21.3885 3.47395H3.79197L12.5898 10.4894L21.3885 3.47395ZM0.859375 3.47395C0.86171 2.73045 1.17143 2.01803 1.72089 1.49229C2.27036 0.96655 3.01492 0.670203 3.79197 0.667969L21.3885 0.667969C22.1656 0.670203 22.9102 0.96655 23.4596 1.49229C24.0091 2.01803 24.3188 2.73045 24.3211 3.47395V14.6979C24.3188 15.4414 24.0091 16.1538 23.4596 16.6795C22.9102 17.2053 22.1656 17.5016 21.3885 17.5039H3.79197C3.01492 17.5016 2.27036 17.2053 1.72089 16.6795C1.17143 16.1538 0.86171 15.4414 0.859375 14.6979L0.859375 3.47395Z" fill="#F8EEEF"/>
    </g>

<!--    styled svg-->
    <path d="M46.9456 6.13191L42.9568 0C15.3417 18.549 0 41.0838 0 59.6328C0 77.5686 13.1939 86 24.3933 86C38.5077 86 48.4798 74.0428 48.4798 61.4724C48.4798 50.8948 41.7294 41.8503 32.6778 38.4777C30.0697 37.5579 27.6151 36.7914 27.6151 32.3458C27.6151 26.6738 31.7573 18.2424 46.9456 6.13191ZM107.852 6.13191L103.863 0C76.5551 18.549 60.9066 41.0838 60.9066 59.6328C60.9066 77.5686 74.4072 86 85.6067 86C99.8745 86 110 74.0428 110 61.4724C110 50.8948 103.096 41.8503 93.7378 38.4777C91.1297 37.5579 88.8284 36.7914 88.8284 32.3458C88.8284 26.6738 93.1241 18.2424 107.852 6.13191Z" fill="#FEC5CE"/>
</svg>
